<svg xmlns="http://www.w3.org/2000/svg" fill="none" width="318" viewBox="0 0 318 72">
  <path fill="#000"
    d="M103.8 4.8H100.7L97 14.9 93.2 4.8H90V17.3H92V7.2L95.8 17.3H98.1L101.9 7.2V17.3H103.8V4.8ZM107.3 6.1H109.5V4.1H107.3V6.1ZM107.4 17.3H109.4V7.5H107.4V17.3ZM117.9 7.3C116.4 7.3 115.2 8 114.4 9L114.3 7.5H112.6V17.3H114.5V11.7C114.5 10.1 115.8 9 117.3 9 118.6 9 119.5 9.9 119.5 11.6V17.3H121.4V11.1C121.4 8.8 119.9 7.3 117.9 7.3ZM124.4 6.1H126.5V4.1H124.4V6.1ZM124.5 17.3H126.4V7.5H124.5V17.3ZM132.8 17.5C135.3 17.5 136.8 16.3 136.8 14.5 136.8 13 135.8 12.1 133.1 11.5 131.5 11 131 10.7 131 10.1 131 9.4 131.7 9 132.8 9 133.9 9 134.7 9.3 135.5 10L136.6 8.5C135.6 7.7 134.3 7.3 132.9 7.3 130.6 7.3 129.1 8.4 129.1 10.2 129.1 11.7 130.1 12.5 132.6 13.2 134.4 13.6 134.9 14 134.9 14.6 134.9 15.4 134.1 15.8 132.9 15.8 131.6 15.8 130.5 15.3 129.7 14.5L128.6 16C129.7 16.9 131.2 17.5 132.8 17.5ZM144.5 9.1V7.5H141.5V4.8H139.9L139.6 7.5H137.7V9.1H139.6V14.7C139.6 16.5 140.6 17.5 142.6 17.5 143.2 17.5 143.9 17.4 144.5 17.2V15.4C143.9 15.6 143.5 15.6 142.9 15.6 142 15.6 141.5 15.3 141.5 14.3V9.1H144.5ZM152.1 7.3C150.6 7.3 149.4 8 148.7 9L148.6 7.5H146.9V17.3H148.8V11.8C148.8 10.2 150 9.2 151.5 9.2 152 9.2 152.4 9.2 152.9 9.3V7.4C152.6 7.3 152.4 7.3 152.1 7.3ZM161.6 7.5 159 15.6H158.3L155.4 7.5H153.3L156.4 15.6H155C154.4 16.2 154.1 17 154.1 17.9 154.1 19.6 155.2 20.7 156.8 20.7 158.5 20.7 159.6 19.7 160.4 17.2L163.6 7.5H161.6ZM156.9 19.1C156.2 19.1 155.8 18.6 155.8 18 155.8 17.7 155.8 17.4 156 17.2H158.4L158.2 17.8C157.9 18.6 157.4 19.1 156.9 19.1ZM93.9 42.7C96.9 42.7 98.9 40.6 98.9 37.6 98.9 34.5 96.9 32.5 93.9 32.5 91 32.5 89 34.6 89 37.6 89 40.7 90.9 42.7 93.9 42.7ZM93.9 41C92.2 41 91 39.6 91 37.6 91 35.5 92.2 34.2 93.9 34.2 95.7 34.2 96.9 35.5 96.9 37.6 96.9 39.6 95.7 41 93.9 41ZM105 30.8C105.7 30.8 106.3 31 106.8 31.4L107.7 30C106.9 29.4 106 29.1 105 29.1 103.1 29.1 101.9 30.2 101.9 32V32.6H99.8V34.3H101.9V42.5H103.8V34.3H106.6V32.6H103.8V32C103.8 31.3 104.2 30.8 105 30.8ZM118.6 30H114.1V42.5H118.6C122.5 42.5 124.7 39.9 124.7 36.3 124.7 32.5 122.6 30 118.6 30ZM118.6 40.7H116.1V31.8H118.6C121.1 31.8 122.6 33.5 122.6 36.3 122.6 39 121.1 40.7 118.6 40.7ZM127.2 31.3H129.4V29.3H127.2V31.3ZM127.3 42.5H129.3V32.6H127.3V42.5ZM139.6 32.6 139.4 34.1C138.7 33.1 137.5 32.5 136.1 32.5 133.6 32.5 131.8 34.4 131.8 37.3 131.8 40.2 133.5 42.1 136.1 42.1 137.5 42.1 138.6 41.5 139.4 40.5V41.4C139.4 43 138.6 44.3 136.4 44.3 135.2 44.3 134.3 44 133.5 43.1L132.5 44.5C133.4 45.4 134.7 45.9 136.5 45.9 139.5 45.9 141.2 44.1 141.2 41.5L141.3 32.6H139.6ZM136.6 40.5C134.9 40.5 133.8 39.2 133.8 37.3 133.8 35.4 134.9 34.2 136.6 34.2 138.3 34.2 139.4 35.4 139.4 37.3 139.4 39.2 138.3 40.5 136.6 40.5ZM144.4 31.3H146.5V29.3H144.4V31.3ZM144.5 42.5H146.4V32.6H144.5V42.5ZM155.4 34.3V32.6H152.4V30H150.7L150.5 32.6H148.6V34.3H150.5V39.9C150.5 41.7 151.5 42.7 153.4 42.7 154.1 42.7 154.8 42.6 155.4 42.4V40.6C154.8 40.8 154.4 40.8 153.8 40.8 152.9 40.8 152.4 40.5 152.4 39.5V34.3H155.4ZM165.5 40.8C165 40.8 164.8 40.6 164.8 40.2V35.7C164.8 33.7 163.4 32.5 161.1 32.5 159.4 32.5 158 33.1 156.8 34.2L158 35.4C158.8 34.6 159.9 34.1 161 34.1 162.2 34.1 163 34.7 163 35.4 163 36.2 162.3 36.3 160.8 36.5 158.9 36.8 156.6 37.3 156.6 39.8 156.6 41.5 157.9 42.7 159.8 42.7 161.3 42.7 162.6 42 163.2 41 163.4 42.1 163.9 42.6 165.1 42.6 165.5 42.6 165.7 42.5 165.8 42.5V40.8H165.5ZM160.1 41C159.1 41 158.6 40.6 158.6 39.6 158.6 38.4 159.8 38.2 161.1 38 162 37.8 162.6 37.7 163 37.5V38.8C163 40 161.6 41 160.1 41ZM168 42.5H170V29.4H168V42.5ZM187.9 30H177V31.9H181.4V42.5H183.5V31.9H187.9V30ZM193.4 32.5C191.9 32.5 190.7 33.2 190 34.2L189.8 32.6H188.1V42.5H190.1V37C190.1 35.4 191.3 34.4 192.8 34.4 193.3 34.4 193.7 34.4 194.1 34.5V32.6C193.9 32.5 193.6 32.5 193.4 32.5ZM203.6 40.8C203.2 40.8 203 40.6 203 40.2V35.7C203 33.7 201.5 32.5 199.2 32.5 197.5 32.5 196.1 33.1 194.9 34.2L196.2 35.4C196.9 34.6 198 34.1 199.1 34.1 200.3 34.1 201.1 34.7 201.1 35.4 201.1 36.2 200.4 36.3 199 36.5 197.1 36.8 194.8 37.3 194.8 39.8 194.8 41.5 196 42.7 197.9 42.7 199.4 42.7 200.7 42 201.4 41 201.5 42.1 202 42.6 203.3 42.6 203.6 42.6 203.8 42.5 203.9 42.5V40.8H203.6ZM198.3 41C197.3 41 196.7 40.6 196.7 39.6 196.7 38.4 197.9 38.2 199.2 38 200.1 37.8 200.7 37.7 201.1 37.5V38.8C201.1 40 199.8 41 198.3 41ZM211.4 32.5C209.9 32.5 208.7 33.1 207.9 34.2L207.8 32.6H206.1V42.5H208.1V36.8C208.1 35.3 209.3 34.2 210.8 34.2 212.2 34.2 213 35.1 213 36.8V42.5H215V36.3C215 34 213.5 32.5 211.4 32.5ZM221 42.7C223.5 42.7 225 41.5 225 39.7 225 38.2 224 37.3 221.3 36.7 219.7 36.2 219.2 35.9 219.2 35.3 219.2 34.6 219.9 34.2 221 34.2 222.1 34.2 222.9 34.5 223.7 35.2L224.8 33.7C223.7 32.9 222.5 32.5 221.1 32.5 218.8 32.5 217.3 33.6 217.3 35.4 217.3 36.9 218.3 37.7 220.8 38.4 222.6 38.8 223.1 39.2 223.1 39.8 223.1 40.6 222.3 40.9 221.1 40.9 219.8 40.9 218.7 40.5 217.9 39.7L216.8 41.1C217.9 42.1 219.4 42.7 221 42.7ZM231 30.8C231.7 30.8 232.3 31 232.8 31.4L233.8 30C233 29.4 232.1 29.1 231.1 29.1 229.1 29.1 227.9 30.2 227.9 32V32.6H225.9V34.3H227.9V42.5H229.9V34.3H232.7V32.6H229.9V32C229.9 31.3 230.3 30.8 231 30.8ZM238.3 42.7C241.3 42.7 243.3 40.6 243.3 37.6 243.3 34.5 241.3 32.5 238.3 32.5 235.4 32.5 233.4 34.6 233.4 37.6 233.4 40.7 235.3 42.7 238.3 42.7ZM238.3 41C236.6 41 235.4 39.6 235.4 37.6 235.4 35.5 236.6 34.2 238.3 34.2 240.1 34.2 241.3 35.5 241.3 37.6 241.3 39.6 240.1 41 238.3 41ZM250.9 32.5C249.4 32.5 248.2 33.2 247.5 34.2L247.3 32.6H245.6V42.5H247.6V37C247.6 35.4 248.8 34.4 250.3 34.4 250.8 34.4 251.2 34.4 251.6 34.5V32.6C251.4 32.5 251.2 32.5 250.9 32.5ZM265.2 32.5C263.7 32.5 262.4 33.2 261.7 34.4 261.2 33.2 260.1 32.5 258.6 32.5 257.2 32.5 256 33.1 255.3 34.1L255.2 32.6H253.5V42.5H255.5V36.8C255.5 35.3 256.6 34.2 258.1 34.2 259.4 34.2 260.1 35.1 260.1 36.8V42.5H262.1V36.8C262.1 35.3 263.2 34.2 264.7 34.2 266 34.2 266.7 35.1 266.7 36.8V42.5H268.7V36.3C268.7 34 267.3 32.5 265.2 32.5ZM279.5 40.8C279.1 40.8 278.9 40.6 278.9 40.2V35.7C278.9 33.7 277.5 32.5 275.1 32.5 273.4 32.5 272 33.1 270.9 34.2L272.1 35.4C272.9 34.6 273.9 34.1 275 34.1 276.3 34.1 277.1 34.7 277.1 35.4 277.1 36.2 276.4 36.3 274.9 36.5 273 36.8 270.7 37.3 270.7 39.8 270.7 41.5 272 42.7 273.9 42.7 275.3 42.7 276.6 42 277.3 41 277.4 42.1 278 42.6 279.2 42.6 279.5 42.6 279.8 42.5 279.9 42.5V40.8H279.5ZM274.2 41C273.2 41 272.6 40.6 272.6 39.6 272.6 38.4 273.9 38.2 275.1 38 276.1 37.8 276.7 37.7 277 37.5V38.8C277 40 275.7 41 274.2 41ZM287.6 34.3V32.6H284.6V30H283L282.7 32.6H280.8V34.3H282.7V39.9C282.7 41.7 283.7 42.7 285.7 42.7 286.3 42.7 287 42.6 287.6 42.4V40.6C287 40.8 286.6 40.8 286 40.8 285.1 40.8 284.6 40.5 284.6 39.5V34.3H287.6ZM290 31.3H292.2V29.3H290V31.3ZM290.1 42.5H292.1V32.6H290.1V42.5ZM299.5 42.7C302.5 42.7 304.5 40.6 304.5 37.6 304.5 34.5 302.5 32.5 299.5 32.5 296.6 32.5 294.6 34.6 294.6 37.6 294.6 40.7 296.5 42.7 299.5 42.7ZM299.5 41C297.7 41 296.6 39.6 296.6 37.6 296.6 35.5 297.7 34.2 299.5 34.2 301.3 34.2 302.5 35.5 302.5 37.6 302.5 39.6 301.3 41 299.5 41ZM312.1 32.5C310.6 32.5 309.4 33.1 308.7 34.2L308.5 32.6H306.8V42.5H308.8V36.8C308.8 35.3 310 34.2 311.6 34.2 312.9 34.2 313.7 35.1 313.7 36.8V42.5H315.7V36.3C315.7 34 314.2 32.5 312.1 32.5ZM93.9 67.8C96.9 67.8 98.9 65.8 98.9 62.8 98.9 59.7 96.9 57.7 93.9 57.7 91 57.7 89 59.7 89 62.8 89 65.8 90.9 67.8 93.9 67.8ZM93.9 66.2C92.2 66.2 91 64.8 91 62.8 91 60.7 92.2 59.3 93.9 59.3 95.7 59.3 96.9 60.7 96.9 62.8 96.9 64.8 95.7 66.2 93.9 66.2ZM105 56C105.7 56 106.3 56.2 106.8 56.6L107.7 55.2C106.9 54.6 106 54.3 105 54.3 103.1 54.3 101.9 55.4 101.9 57.2V57.8H99.8V59.5H101.9V67.7H103.8V59.5H106.6V57.8H103.8V57.2C103.8 56.5 104.2 56 105 56ZM119.1 67.8C122.3 67.8 124.3 65.8 124.3 62.8V55.2H122.3V62.7C122.3 64.8 121.1 66 119.1 66 117.2 66 116 64.8 116 62.7V55.2H113.9V62.8C113.9 65.8 115.9 67.8 119.1 67.8ZM135.7 65.9C135.4 65.9 135.2 65.7 135.2 65.5V61.8H133.4L135.9 57.8H133.8L131.5 61.7H129.5V54.6H127.6V67.7H129.5V63.5H133.3V65.9C133.3 67.1 134 67.7 135.2 67.7H136.1V65.9H135.7ZM143.6 57.7C142.1 57.7 140.9 58.4 140.2 59.4L140 57.8H138.4V67.7H140.3V62.2C140.3 60.6 141.5 59.6 143 59.6 143.5 59.6 143.9 59.6 144.3 59.6V57.8C144.1 57.7 143.9 57.7 143.6 57.7ZM153.8 66C153.4 66 153.2 65.8 153.2 65.4V60.9C153.2 58.9 151.7 57.7 149.4 57.7 147.7 57.7 146.3 58.3 145.2 59.3L146.4 60.6C147.1 59.8 148.2 59.3 149.3 59.3 150.5 59.3 151.4 59.8 151.4 60.6 151.4 61.4 150.6 61.5 149.2 61.7 147.3 62 145 62.5 145 65 145 66.7 146.2 67.8 148.2 67.8 149.6 67.8 150.9 67.2 151.6 66.2 151.7 67.3 152.3 67.7 153.5 67.7 153.8 67.7 154.1 67.7 154.2 67.7V66H153.8ZM148.5 66.2C147.5 66.2 146.9 65.7 146.9 64.8 146.9 63.5 148.2 63.4 149.4 63.2 150.3 63 150.9 62.9 151.3 62.7V63.9C151.3 65.2 150 66.2 148.5 66.2ZM156.4 56.5H158.6V54.5H156.4V56.5ZM156.5 67.7H158.5V57.8H156.5V67.7ZM167 57.7C165.5 57.7 164.3 58.3 163.5 59.4L163.4 57.8H161.7V67.7H163.6V62C163.6 60.5 164.9 59.3 166.4 59.3 167.7 59.3 168.6 60.3 168.6 62V67.7H170.5V61.4C170.5 59.2 169 57.7 167 57.7ZM174.6 63.4H182.2C182.2 63.2 182.2 63 182.2 62.8 182.2 59.7 180.4 57.7 177.5 57.7 174.6 57.7 172.7 59.7 172.7 62.8 172.7 65.7 174.5 67.8 177.7 67.8 179.7 67.8 181.1 67.1 181.9 66.1L180.6 64.9C180 65.6 179.1 66.2 177.7 66.2 176 66.2 174.9 65.1 174.6 63.4ZM177.5 59.3C179 59.3 180 60.3 180.3 61.9H174.7C175 60.3 176 59.3 177.5 59.3Z" />
  <path fill="#000" fill-rule="evenodd"
    d="M6.53448 6.57654L6.53255 6.57846C3.93324 9.18932 2.58021 12.5303 1.89029 17.2609C1.19447 22.032 1.19156 28.064 1.19156 35.9807C1.19156 43.8976 1.19447 49.9298 1.8903 54.7026C2.58022 59.4347 3.93337 62.7796 6.5335 65.3972L6.53448 65.3984C9.12786 68.0151 12.4464 69.3774 17.1455 70.0718C21.8847 70.7722 27.8763 70.7754 35.7402 70.7754C43.6042 70.7754 49.5958 70.7722 54.3367 70.0718C59.0373 69.3774 62.3596 68.0151 64.96 65.3972C67.5601 62.7796 68.9134 59.4376 69.6031 54.7074C70.2988 49.9364 70.3019 43.9042 70.3019 35.9807C70.3019 28.0575 70.2988 22.0255 69.6031 17.2544C68.9134 12.5241 67.5601 9.1823 64.96 6.56444C62.3599 3.9533 59.0404 2.59437 54.3418 1.90144C49.6024 1.2025 43.6105 1.19958 35.7402 1.19958C27.8698 1.19958 21.8782 1.20252 17.1407 1.90301C12.4436 2.59752 9.12805 3.95953 6.53448 6.57654ZM65.8025 5.71623C71.4933 11.4455 71.4936 20.2025 71.4936 35.9807C71.4936 51.7592 71.4933 60.5163 65.8025 66.2457C60.1114 71.9747 51.4001 71.9747 35.7402 71.9747C20.0804 71.9747 11.3689 71.9747 5.69097 66.2457C0 60.5163 0 51.7462 0 35.9807C0 20.2156 0 11.4455 5.69097 5.72927C11.3689 0 20.0674 0 35.7402 0C51.4131 0 60.1114 0 65.8025 5.71623Z"
    clip-rule="evenodd" />
  <path fill="#000"
    d="M34.3061 58.332C31.8332 56.4338 30.0096 53.6021 29.4223 50.3037H21.4477V15.6077C25.7441 17.7548 28.8041 22.5158 29.175 27.4323L30.3805 37.1722L29.7932 37.0788C28.495 37.0788 27.3823 38.2924 27.3823 39.5059C27.3823 40.626 28.2477 41.5908 29.3605 41.8396L30.8132 42.1819C33.224 37.6077 34.5842 33.127 34.5842 28.7081C34.5842 24.7251 34.0586 20.7732 33.9968 16.7279C33.9968 14.9231 34.677 13.2739 35.7897 11.998C36.9024 13.305 37.5824 14.9231 37.5824 16.7279C37.5824 20.7732 36.9952 24.7562 36.9952 28.7081C36.9952 33.0957 38.3551 37.6077 40.7661 42.1819L42.2188 41.8396C43.3315 41.5908 44.197 40.626 44.197 39.5059C44.197 38.2924 43.0843 37.0788 41.786 37.0788L41.1989 37.1722L42.4041 27.4323C42.9915 22.5158 45.8353 17.7548 50.1315 15.6077V50.3037H42.1569C41.5698 53.5712 39.8387 56.5273 37.2733 58.332C36.6859 58.7678 36.1606 59.2968 35.8206 59.9814C35.4188 59.2655 34.8932 58.7678 34.3061 58.332ZM25.2186 38.3236C25.5586 37.0166 26.5168 35.8961 27.6914 35.2118L26.7332 27.1834C26.3932 24.694 25.3732 22.4535 23.8277 20.6176V38.2924H25.2186V38.3236ZM29.2678 47.8766C29.2678 46.663 29.4532 45.5429 29.7005 44.4225L28.5877 44.1736C26.9495 43.6447 25.6823 42.3689 25.2495 40.7195H23.8895V47.8766H29.2678ZM34.5533 47.8766C34.5533 46.4141 33.4406 45.1071 31.9879 44.9514C31.7404 45.8849 31.555 46.8496 31.555 47.8766H34.5533ZM34.5533 50.3037H31.8951C32.3279 52.2019 33.2549 53.9132 34.5533 55.4069V50.3037ZM38.3242 42.8043C37.3043 40.9061 36.3459 38.9148 35.7588 36.8609C35.1713 38.9457 34.2133 40.9061 33.1934 42.8043C34.2133 43.0532 35.0788 43.7378 35.7588 44.5159C36.4387 43.7378 37.3043 43.0532 38.3242 42.8043ZM39.9624 47.8766C39.9624 46.8496 39.7768 45.8849 39.5297 44.9514C38.077 45.1383 36.9643 46.4141 36.9643 47.8766H39.9624ZM39.6225 50.3037H36.9643V55.4069C38.2623 53.9132 39.1897 52.2019 39.6225 50.3037ZM47.6898 47.8766V40.7195H46.3297C45.8969 42.3689 44.6298 43.6447 42.9915 44.1736L41.8788 44.4225C42.126 45.5429 42.3116 46.663 42.3116 47.8766H47.6898ZM47.6898 20.6487C46.1444 22.4535 45.0317 24.694 44.7842 27.2145L43.8261 35.2428C45.0317 35.9274 45.9588 37.0475 46.2987 38.3546H47.6898V20.6487Z" />
</svg>