<svg width="624" height="40" viewBox="0 0 624 40" fill="none" xmlns="http://www.w3.org/2000/svg">
<g clip-path="url(#clip0_456_3555)">
<path d="M39.7517 17.519L31.8878 3.98962C31.5359 3.38354 31.0294 2.88047 30.4195 2.53115C29.8097 2.18184 29.1179 1.99863 28.4141 2.00001H12.7023C11.8311 2.00233 10.9758 2.23173 10.2216 2.66532C9.46744 3.09891 8.84078 3.72154 8.40415 4.4711L0.540253 18.0004C0.189006 18.6054 0.00408936 19.2916 0.00408936 19.9901C0.00408936 20.6886 0.189006 21.3748 0.540253 21.9797L8.40415 35.5289C8.84112 36.2791 9.46841 36.9021 10.2233 37.3357C10.9783 37.7693 11.8344 37.9984 12.7063 38H28.4141C29.1152 37.9986 29.8036 37.8141 30.4105 37.4649C31.0173 37.1157 31.5212 36.6141 31.8718 36.0104L39.7357 22.4811C40.1773 21.7285 40.4113 20.8734 40.4141 20.0021C40.417 19.1309 40.1884 18.2743 39.7517 17.519ZM2.77336 20.0458L3.6618 18.5297L10.6853 6.41296L15.0875 14.0053C15.2929 14.3246 15.6142 14.5529 15.9846 14.6426C16.355 14.7322 16.746 14.6764 17.076 14.4867C17.406 14.2969 17.6498 13.988 17.7565 13.6241C17.8631 13.2601 17.8246 12.8693 17.6487 12.533L14.103 6.41296C13.809 5.97974 13.4169 5.62119 12.9581 5.36616C12.4994 5.11113 11.9868 4.96675 11.4617 4.94463H27.3175L19.8618 17.7856C19.7301 18.0116 19.541 18.1993 19.3135 18.3299C19.0859 18.4605 18.8279 18.5294 18.5652 18.5297H5.45069C4.90979 18.5262 4.3775 18.6644 3.90747 18.9306C3.43744 19.1968 3.04627 19.5814 2.77336 20.0458ZM27.3175 35.0594H13.2506L17.6527 27.4591C17.7605 27.2915 17.833 27.104 17.8659 26.9078C17.8988 26.7116 17.8913 26.5108 17.844 26.3175C17.7967 26.1243 17.7105 25.9425 17.5906 25.7833C17.4707 25.6241 17.3196 25.4907 17.1464 25.3911C16.9732 25.2916 16.7816 25.228 16.583 25.2041C16.3844 25.1802 16.183 25.1966 15.9909 25.2523C15.7989 25.3079 15.6202 25.4017 15.4656 25.528C15.311 25.6542 15.1837 25.8103 15.0915 25.9867L10.6893 33.5871L9.81285 35.1071C10.0549 34.6863 10.1931 34.2144 10.216 33.7302C10.239 33.246 10.1461 32.7632 9.94491 32.3217L3.6538 21.4703H18.5652C18.8278 21.4711 19.0857 21.5401 19.3132 21.6707C19.5407 21.8012 19.7298 21.9887 19.8618 22.2144L26.4851 33.6189C26.7774 34.046 27.1666 34.3989 27.6212 34.6491C28.0758 34.8993 28.5832 35.0398 29.1024 35.0594H27.3175ZM36.9143 21.4743L29.8828 33.5871L22.4111 20.7461C22.2805 20.5196 22.2118 20.2631 22.2118 20.002C22.2118 19.7409 22.2805 19.4844 22.4111 19.2579L29.8828 6.41296L30.7592 4.89688C30.466 5.40768 30.326 5.99127 30.3558 6.57866C30.3856 7.16605 30.5839 7.73269 30.9273 8.21157C31.1794 8.56174 36.9303 18.5257 36.9303 18.5257H28.0819C27.6892 18.5257 27.3126 18.6808 27.0349 18.9569C26.7572 19.233 26.6012 19.6075 26.6012 19.998C26.6012 20.3885 26.7572 20.763 27.0349 21.0391C27.3126 21.3152 27.6892 21.4703 28.0819 21.4703H35.1654H35.1254C35.6663 21.4739 36.1986 21.3356 36.6686 21.0694C37.1386 20.8033 37.5298 20.4186 37.8027 19.9542L36.9103 21.4783L36.9143 21.4743Z" fill="#000005"/>
<path d="M125.474 12.0157C124.561 11.9961 123.66 12.2304 122.873 12.6922C122.114 13.158 121.434 13.7409 120.86 14.4191L120.78 14.5146H120.312L119.823 12.3738H114.733C114.544 12.3738 114.36 12.431 114.205 12.5376C114.05 12.6442 113.931 12.7953 113.864 12.9707L112.944 15.41H118.835C118.835 15.41 116.99 15.41 116.99 16.8982V25.0317H114.729C114.54 25.0317 114.356 25.0889 114.201 25.1955C114.046 25.3021 113.927 25.4532 113.86 25.6286L112.94 28.0679H125.99C126.18 28.0683 126.366 28.011 126.521 27.9036C126.677 27.7962 126.797 27.6438 126.863 27.467L127.783 25.0277H120.7V17.7696L120.744 17.702C121.13 17.1146 121.605 16.5898 122.153 16.1461C122.805 15.6522 123.611 15.4016 124.43 15.4378C124.689 15.4212 124.948 15.4736 125.18 15.5897C125.412 15.7058 125.609 15.8814 125.75 16.0984C126.014 16.5869 126.145 17.1356 126.131 17.6901H129.416C129.388 15.6726 129.016 14.2122 128.348 13.3487C128.012 12.9125 127.576 12.5634 127.076 12.3313C126.575 12.0992 126.026 11.9909 125.474 12.0157Z" fill="#000005"/>
<path d="M145.468 19.9065C144.658 19.5208 143.81 19.2169 142.939 18.9992L140.358 18.3347C139.673 18.1612 139.004 17.9337 138.357 17.6543C137.72 17.3717 137.396 16.9738 137.396 16.4605C137.402 16.1628 137.502 15.8745 137.682 15.6361C137.861 15.3977 138.111 15.2212 138.397 15.1314C139.139 14.8555 139.929 14.727 140.722 14.7534C141.25 14.7546 141.778 14.8106 142.295 14.9205C142.807 15.0285 143.312 15.1735 143.803 15.3543C144.275 15.5294 144.736 15.7243 145.164 15.9313C145.5 16.0944 145.808 16.2536 146.08 16.4088L147.605 13.9536C147.338 13.7758 147.046 13.5822 146.729 13.3726C146.262 13.0851 145.766 12.8489 145.248 12.6683C144.575 12.4341 143.885 12.2532 143.183 12.1271C142.273 11.9691 141.35 11.8945 140.426 11.9043C139.507 11.8984 138.592 12.0053 137.7 12.2226C136.941 12.4025 136.219 12.7136 135.567 13.1418C135.002 13.5193 134.528 14.0167 134.178 14.5982C133.833 15.204 133.66 15.8918 133.678 16.5878C133.644 17.39 133.906 18.177 134.415 18.8003C134.945 19.4042 135.587 19.9002 136.308 20.2606C137.109 20.6644 137.955 20.9729 138.829 21.1798C139.757 21.4067 140.626 21.6295 141.414 21.8484C142.109 22.0315 142.785 22.2765 143.435 22.5805C143.704 22.6747 143.938 22.8467 144.108 23.0743C144.278 23.3019 144.375 23.5748 144.388 23.8579C144.4 24.1606 144.321 24.4601 144.159 24.7172C143.998 24.9742 143.762 25.1768 143.483 25.2983C142.459 25.7838 140.962 25.7798 139.533 25.4297C138.881 25.272 138.242 25.0672 137.62 24.8169C137.056 24.5921 136.512 24.3191 135.995 24.0011C135.631 23.7743 135.327 23.5674 135.075 23.3764L133.402 25.9828C134.316 26.7124 135.338 27.2976 136.432 27.7177C137.948 28.2839 139.559 28.5541 141.178 28.5135C143.479 28.5135 145.228 28.0559 146.381 27.1566C146.938 26.7251 147.383 26.1664 147.678 25.5278C147.972 24.8892 148.108 24.1895 148.073 23.4878C148.106 22.7024 147.845 21.9327 147.341 21.3271C146.818 20.734 146.181 20.251 145.468 19.9065Z" fill="#000005"/>
<path d="M166.306 23.8022C165.967 24.0793 165.604 24.3269 165.222 24.5423C164.796 24.7802 164.343 24.9685 163.873 25.1034C163.328 25.2571 162.763 25.3322 162.196 25.3262C161.66 25.3522 161.125 25.2565 160.631 25.0462C160.137 24.8359 159.698 24.5166 159.347 24.1125C158.679 23.3167 158.338 22.0433 158.338 20.3203V15.41H165.746L166.883 12.3738H158.342V7.57092L155.309 8.43043C155.115 8.48573 154.945 8.60221 154.824 8.7623C154.702 8.92238 154.637 9.11737 154.637 9.3178V12.3858H153.192C153.003 12.3858 152.819 12.4429 152.664 12.5495C152.509 12.6562 152.39 12.8072 152.323 12.9827L151.403 15.4219H156.626C156.626 15.4219 154.625 15.4219 154.625 16.9858V20.3044C154.625 23.1655 155.221 25.2745 156.402 26.5677C157.582 27.861 159.355 28.5096 161.704 28.5096C162.377 28.5068 163.048 28.4321 163.705 28.2867C164.377 28.1419 165.033 27.9354 165.666 27.67C166.276 27.4146 166.863 27.107 167.419 26.7508C167.859 26.4744 168.262 26.1442 168.62 25.7679L166.943 23.265L166.306 23.8022Z" fill="#000005"/>
<path d="M185.44 24.785C185.419 24.5197 185.387 24.2332 185.344 23.9255C185.299 23.3472 185.276 22.8259 185.276 22.3617C185.276 21.7489 185.316 21.0406 185.392 20.2567C185.468 19.4728 185.504 18.5536 185.504 17.4712C185.513 16.7076 185.407 15.947 185.188 15.215C184.994 14.5858 184.653 14.0115 184.191 13.5398C183.678 13.0412 183.054 12.6692 182.37 12.4534C181.464 12.1706 180.518 12.0362 179.569 12.0555C178.224 12.0294 176.88 12.163 175.567 12.4534C174.625 12.6784 173.703 12.9777 172.81 13.3487L173.658 16.1342C174.312 15.8579 174.98 15.6148 175.659 15.406C176.651 15.106 177.684 14.9597 178.721 14.9723C179.521 14.9209 180.317 15.1274 180.99 15.5612C181.534 15.9591 181.79 16.6356 181.79 17.5508V18.1556C181.791 18.3947 181.768 18.6332 181.722 18.8679L181.69 19.1107H181.454C180.822 19.0682 180.288 19.0244 179.853 18.9793C179.429 18.9356 179.025 18.9157 178.653 18.9157C177.664 18.9064 176.677 19.0079 175.711 19.2181C174.925 19.3846 174.175 19.6906 173.498 20.1214C172.916 20.5003 172.444 21.0245 172.129 21.6414C171.798 22.3385 171.637 23.1032 171.657 23.8738C171.629 24.4789 171.734 25.0829 171.966 25.6432C172.197 26.2035 172.55 26.7065 172.998 27.1168C173.894 27.9127 175.131 28.3464 176.68 28.3464C177.759 28.3999 178.832 28.1605 179.785 27.654C180.492 27.2436 181.095 26.6789 181.55 26.0027L181.63 25.8793H182.162L182.59 28.0878H186.236C186.453 28.0878 186.662 28.0127 186.829 27.8753C186.996 27.738 187.109 27.5471 187.149 27.3357L187.581 25.0516H185.48L185.44 24.785ZM181.766 23.4042L181.734 23.4639C181.434 23.9808 181.025 24.4262 180.533 24.7691C179.791 25.23 178.922 25.4472 178.048 25.3899C177.152 25.3899 176.515 25.2028 176.103 24.8129C175.895 24.6044 175.733 24.3553 175.627 24.0813C175.521 23.8074 175.473 23.5145 175.487 23.2212C175.478 22.8276 175.599 22.4418 175.831 22.1229C176.061 21.8213 176.358 21.5773 176.7 21.4106C177.068 21.2237 177.462 21.0897 177.868 21.0127C178.76 20.8651 179.67 20.8531 180.565 20.9769C181.006 21.0326 181.33 21.0804 181.554 21.1241L181.77 21.1679V23.4003L181.766 23.4042Z" fill="#000005"/>
<path d="M200.435 19.5086L206.786 12.3818H202.5L197.162 18.8321H195.785V5.87973H191.191C191.002 5.87975 190.818 5.93687 190.663 6.0435C190.508 6.15013 190.389 6.3012 190.322 6.47661L189.402 8.91587H193.876C193.876 8.91587 192.079 8.91587 192.079 10.2211V28.0679H195.785V21.347H197.322L202.925 28.0679H206.03C206.22 28.0683 206.405 28.011 206.561 27.9036C206.717 27.7962 206.836 27.6438 206.903 27.467L207.823 25.0277H204.926L200.435 19.5086Z" fill="#000005"/>
<path d="M87.7635 12.3738C87.5668 12.3737 87.3752 12.4357 87.2163 12.5508C87.0573 12.666 86.9392 12.8283 86.879 13.0145L83.5134 22.3338H82.9051L78.4149 12.3858H75.1492C74.9606 12.3858 74.7765 12.4429 74.6214 12.5495C74.4663 12.6562 74.3475 12.8072 74.2808 12.9826L73.3604 15.4219H77.9186C77.9186 15.4219 75.7415 15.4219 76.5699 17.4115L81.1762 28.0679H85.0341L91.0651 12.3698L87.7635 12.3738Z" fill="#000005"/>
<path d="M68.7301 13.3129C68.0266 12.8073 67.2317 12.4411 66.3889 12.2346C64.4505 11.7502 62.4139 11.8206 60.514 12.4375C59.5168 12.7641 58.5984 13.2925 57.8167 13.9894C57.0379 14.7116 56.4273 15.5944 56.0278 16.5759C55.5635 17.7345 55.3376 18.9739 55.3634 20.2209C55.3434 21.4097 55.5414 22.5923 55.9477 23.7106C56.3092 24.6972 56.8888 25.5905 57.6438 26.3247C58.3988 27.0588 59.3099 27.6151 60.3099 27.9525C61.4836 28.3475 62.7167 28.5399 63.9557 28.5215C64.7561 28.5215 68.4059 28.3862 71.2033 26.3966L70.687 23.8022C68.75 25.0196 66.5074 25.6705 64.2158 25.6803C63.575 25.6888 62.9354 25.6206 62.3109 25.4774C61.7324 25.3416 61.1833 25.103 60.6901 24.7731C60.211 24.4484 59.8139 24.018 59.5295 23.5156C59.219 22.9376 59.0555 22.2928 59.0533 21.6375V21.3629H70.8351C71.0133 20.4569 71.1071 19.5364 71.1152 18.6133C71.1557 17.4917 70.9252 16.3769 70.4429 15.3622C70.0406 14.5556 69.454 13.8538 68.7301 13.3129ZM67.7216 18.8003H59.1293L59.1533 18.5138C59.1934 17.9529 59.3617 17.4085 59.6456 16.9221C59.9169 16.4564 60.2804 16.0503 60.7141 15.7283C61.1483 15.4088 61.6342 15.1652 62.1508 15.0081C62.6957 14.8439 63.2623 14.7621 63.8316 14.7653C65.1203 14.7653 66.1048 15.1115 66.7531 15.792C67.4263 16.5453 67.7755 17.5311 67.7256 18.5376L67.7216 18.8003Z" fill="#000005"/>
<path d="M106.729 13.3129C106.025 12.8073 105.231 12.4411 104.388 12.2346C102.449 11.7502 100.413 11.8206 98.5128 12.4375C97.5156 12.7641 96.5972 13.2925 95.8155 13.9894C95.0299 14.7084 94.4125 15.59 94.0066 16.5719C93.5423 17.7305 93.3164 18.9699 93.3423 20.2169C93.3222 21.4058 93.5202 22.5883 93.9266 23.7067C94.2897 24.6949 94.8718 25.5892 95.6296 26.3235C96.3875 27.0578 97.3018 27.6132 98.3047 27.9485C99.4785 28.3435 100.712 28.536 101.951 28.5175C102.751 28.5175 106.401 28.3822 109.198 26.3926L108.694 23.8061C106.757 25.0236 104.514 25.6745 102.223 25.6843C101.58 25.6879 100.939 25.6144 100.314 25.4655C99.7352 25.3297 99.1861 25.0911 98.6929 24.7611C98.2106 24.4324 97.8118 23.9964 97.5283 23.4878C97.2178 22.9098 97.0543 22.2649 97.0521 21.6096V21.335H108.854C109.032 20.429 109.126 19.5086 109.134 18.5854C109.17 17.4672 108.937 16.3567 108.454 15.3463C108.046 14.5442 107.455 13.8479 106.729 13.3129ZM105.72 18.8003H97.1281L97.1522 18.5138C97.1922 17.9529 97.3606 17.4085 97.6444 16.9221C97.9157 16.4564 98.2792 16.0503 98.7129 15.7283C99.1472 15.4088 99.633 15.1652 100.15 15.0081C100.695 14.8439 101.261 14.7621 101.83 14.7653C103.119 14.7653 104.104 15.1115 104.752 15.792C105.425 16.5453 105.774 17.5311 105.724 18.5376L105.72 18.8003Z" fill="#000005"/>
<path d="M223.527 13.3129C222.823 12.8073 222.028 12.4411 221.186 12.2346C219.247 11.7502 217.211 11.8206 215.311 12.4375C214.314 12.7641 213.395 13.2925 212.613 13.9894C211.828 14.7084 211.21 15.59 210.804 16.5719C210.34 17.7305 210.114 18.9699 210.14 20.2169C210.12 21.4058 210.318 22.5883 210.724 23.7067C211.088 24.696 211.67 25.5915 212.429 26.3265C213.187 27.0615 214.103 27.6172 215.107 27.9525C216.28 28.3475 217.513 28.5399 218.752 28.5215C219.553 28.5215 223.203 28.3862 226 26.3966L225.484 23.8022C223.547 25.0196 221.304 25.6705 219.013 25.6803C218.37 25.6839 217.729 25.6104 217.104 25.4615C216.525 25.3257 215.976 25.0871 215.483 24.7572C215.004 24.4324 214.607 24.0021 214.322 23.4997C214.012 22.9217 213.848 22.2769 213.846 21.6215V21.347H225.656C225.834 20.4409 225.928 19.5205 225.936 18.5973C225.976 17.4758 225.746 16.361 225.264 15.3463C224.852 14.5429 224.258 13.8465 223.527 13.3129ZM222.51 18.8003H213.926L213.95 18.5138C213.99 17.9529 214.158 17.4085 214.442 16.9221C214.714 16.4564 215.077 16.0503 215.511 15.7283C215.945 15.4088 216.431 15.1652 216.948 15.0081C217.492 14.8439 218.059 14.7621 218.628 14.7653C219.917 14.7653 220.901 15.1115 221.55 15.792C222.223 16.5453 222.572 17.5311 222.522 18.5376L222.51 18.8003Z" fill="#000005"/>
</g>
<path d="M254 32C254.8 31.2 270 16 278 8M254 8L278 32" stroke="#C2C9CF"/>
<g clip-path="url(#clip1_456_3555)">
<path d="M368.84 15.3827V20.5881H379.658V25.7598H368.84V33.8756H361.907V10.2076H381.129V15.3827H368.84Z" fill="#000005"/>
<path d="M391.177 15.5179H383.649V10.2076H405.602V15.5179H398.109V33.8756H391.177V15.5179Z" fill="#000005"/>
<path d="M424.017 33.8756L418.94 26.5373L413.933 33.8756H406.02L414.949 21.9064L406.406 10.2076H414.213L419.116 17.039L423.947 10.2076H431.44L422.897 21.636L432 33.8756H424.017Z" fill="#000005"/>
<path d="M318.868 39H329.327V28.9034H318.868V39Z" fill="#000005"/>
<path d="M338.607 14.9466H318.868V25.0466H338.607H342.197V14.95H338.607V14.9466Z" fill="#000005"/>
<path d="M318.868 0.99998V11.0966H351.269V0.99998H318.868Z" fill="#000005"/>
<path d="M306 25.0466H316.456V14.9466H306V25.0466Z" fill="#000005"/>
</g>
<path d="M460 32C460.8 31.2 476 16 484 8M460 8L484 32" stroke="#C2C9CF"/>
<g clip-path="url(#clip2_456_3555)">
<path d="M537.031 31.2771L526.152 18.6726L536.589 6.70001H528.54L519.076 17.3735V6.70001H512V31.2771H519.076V19.9014L528.982 31.2771H537.031Z" fill="#141618"/>
<path d="M550.064 31.4C556.875 31.4 562.005 28.2401 562.005 22.9735V6.70001H554.929V22.482C554.929 24.3428 553.823 25.9229 550.064 25.9229C546.305 25.9229 545.2 24.3428 545.2 22.482V6.70001H538.124V22.9735C538.124 28.2401 543.254 31.4 550.064 31.4Z" fill="#141618"/>
<path d="M584.356 6.70001V20.0418L572.415 6.70001H567.108V31.2771H574.184V17.9353L586.125 31.2771H591.431V6.70001H584.356Z" fill="#141618"/>
<path d="M616.415 31.2771H624.154L613.629 6.70001H604.607L594.081 31.2771H601.821L603.369 27.415H614.867L616.415 31.2771ZM605.491 22.1485L609.118 13.1252L612.744 22.1485H605.491Z" fill="#141618"/>
</g>
<defs>
<clipPath id="clip0_456_3555">
<rect width="226" height="36" fill="white" transform="translate(0 2)"/>
</clipPath>
<clipPath id="clip1_456_3555">
<rect width="126" height="38" fill="white" transform="translate(306 1)"/>
</clipPath>
<clipPath id="clip2_456_3555">
<rect width="112" height="38" fill="white" transform="translate(512 1)"/>
</clipPath>
</defs>
</svg>
